<svg width="152" height="156" xmlns="http://www.w3.org/2000/svg">
 <!-- Created with Method Draw - http://github.com/duopixel/Method-Draw/ -->

 <g>
  <title>background</title>
  <rect x="-1" y="-1" width="154" height="158" id="canvas_background" fill="#fff"/>
 </g>
 <g>
  <title>Layer 1</title>
  <path stroke="null" fill="#000000" stroke-width="0" stroke-opacity="null" fill-opacity="null" d="m68.44736,141.67778c-4.06274,-2.08978 -7.51867,-4.03583 -1.20759,-4.09279c5.57359,1.04981 19.99196,-6.66662 8.43623,-10.45943c-7.22941,-3.95584 -23.68196,5.18125 -23.76967,-10.44791c1.30781,-9.7947 22.53021,-2.14707 15.54872,-15.28305c-7.68881,-4.40601 -22.9351,5.97511 -25.51437,-7.65882c2.36438,-13.21971 17.15297,-4.78295 24.58608,-8.43643c7.20583,2.083 9.10347,-11.19636 1.01621,-9.192c-18.69554,-1.41354 -37.52148,0.661 -56.15261,-2.22368c-3.00956,-2.33623 -5.23422,-16.70743 -1.43629,-17.67521c27.13981,-0.78812 54.32758,-0.06373 81.42443,-2.41453c9.735,-0.1417 2.29692,-14.70985 -4.89669,-11.28857c-6.85233,-3.14468 -9.56792,-11.39026 -14.59709,-19.53212c-2.56998,-17.79656 9.7816,-11.19128 14.82589,-5.98359c5.63269,5.17514 15.32113,15.91727 20.46075,21.55648c4.5054,4.56567 14.88551,9.632 21.19982,15.7522c5.39726,2.68808 11.30348,1.34981 16.60458,1.8325c0,24.11237 0,48.22438 0,72.33673c-14.99768,9.15202 -30.77941,17.19115 -47.40635,16.27152c-9.73996,-0.05558 -19.75968,0.45491 -29.24562,-3.06129l0.12356,-0.00001zm61.66758,7.73373c7.6561,-4.12262 15.29831,-8.29778 22.88504,-12.66582c-0.36307,-30.11121 -0.72613,-60.22276 -1.08917,-90.33397c-6.05731,-0.32238 -15.04536,3.88838 -19.36286,-2.31182c-11.60785,-5.22124 -19.14426,-16.76947 -29.32018,-25.43707c-7.16111,-7.88593 -12.88107,-10.5774 -20.27754,-16.55795c-5.61794,-3.64094 -8.65979,-1.78166 -14.98593,-0.19424c-2.75911,6.32766 -6.18435,9.5981 -4.40696,21.65242c3.70877,2.61452 8.52176,20.18702 1.23341,20.32668c-20.29081,2.72502 -40.90833,-1.10507 -61.03953,3.65754c-5.01283,9.51098 -5.96883,30.87831 3.20584,36.90971c8.77999,3.55754 18.03723,1.79284 27.05785,2.22062c0.00054,8.99778 -1.06093,20.48023 6.06526,25.00013c5.26193,9.61811 5.63197,23.74763 14.11087,30.78544c7.13101,10.24046 17.28218,13.4038 27.18368,13.06617c16.23601,0.30847 33.32587,2.48976 48.74022,-6.11717l0,-0.00068l0,0.00001z" id="svg_1"/>
 </g>
</svg>