<svg width="152" height="156" xmlns="http://www.w3.org/2000/svg">
 <!-- Created with Method Draw - http://github.com/duopixel/Method-Draw/ -->

 <g>
  <title>background</title>
  <rect x="-1" y="-1" width="154" height="158" id="canvas_background" fill="#fff"/>
 </g>
 <g>
  <title>Layer 1</title>
  <path stroke="null" transform="rotate(90 75.49998474121094,78.00000000000001) " fill="#000000" stroke-width="0" stroke-opacity="null" fill-opacity="null" d="m67.44736,139.22863c-4.06274,-2.0094 -7.51867,-3.88061 -1.20759,-3.93537c5.57359,1.00943 19.99196,-6.41021 8.43623,-10.05714c-7.22941,-3.80369 -23.68196,4.98197 -23.76967,-10.04607c1.30781,-9.41798 22.53021,-2.06449 15.54872,-14.69524c-7.68881,-4.23655 -22.9351,5.7453 -25.51437,-7.36425c2.36438,-12.71126 17.15297,-4.59899 24.58608,-8.11195c7.20583,2.00288 9.10347,-10.76573 1.01621,-8.83846c-18.69554,-1.35917 -37.52148,0.63558 -56.15261,-2.13815c-3.00956,-2.24637 -5.23422,-16.06484 -1.43629,-16.99539c27.13981,-0.75781 54.32758,-0.06128 81.42443,-2.32166c9.735,-0.13625 2.29692,-14.14409 -4.89669,-10.85439c-6.85233,-3.02373 -9.56792,-10.95217 -14.59709,-18.78088c-2.56998,-17.11208 9.7816,-10.76085 14.82589,-5.75345c5.63269,4.9761 15.32113,15.30507 20.46075,20.72738c4.5054,4.39007 14.88551,9.26154 21.19982,15.14635c5.39726,2.58469 11.30348,1.29789 16.60458,1.76202c0,23.18497 0,46.3696 0,69.55455c-14.99768,8.80002 -30.77941,16.52995 -47.40635,15.64569c-9.73996,-0.05344 -19.75968,0.43741 -29.24562,-2.94355l0.12356,-0.00001zm61.66758,7.43628c7.6561,-3.96406 15.29831,-7.97863 22.88504,-12.17867c-0.36307,-28.95309 -0.72613,-57.9065 -1.08917,-86.85958c-6.05731,-0.30998 -15.04536,3.73883 -19.36286,-2.2229c-11.60785,-5.02042 -19.14426,-16.12449 -29.32018,-24.45872c-7.16111,-7.58262 -12.88107,-10.17058 -20.27754,-15.92111c-5.61794,-3.5009 -8.65979,-1.71313 -14.98593,-0.18677c-2.75911,6.08429 -6.18435,9.22894 -4.40696,20.81963c3.70877,2.51396 8.52176,19.4106 1.23341,19.54488c-20.29081,2.62021 -40.90833,-1.06257 -61.03953,3.51687c-5.01283,9.14517 -5.96883,29.69068 3.20584,35.4901c8.77999,3.42071 18.03723,1.72388 27.05785,2.13521c0.00054,8.65171 -1.06093,19.69253 6.06526,24.03859c5.26193,9.24818 5.63197,22.83426 14.11087,29.60138c7.13101,9.8466 17.28218,12.88827 27.18368,12.56362c16.23601,0.29661 33.32587,2.394 48.74022,-5.88189l0,-0.00065l0,0.00001z" id="svg_1"/>
 </g>
</svg>