<svg width="152" height="156" xmlns="http://www.w3.org/2000/svg">
 <!-- Created with Method Draw - http://github.com/duopixel/Method-Draw/ -->
 <g>
  <title>background</title>
  <rect fill="#fff" id="canvas_background" height="158" width="154" y="-1" x="-1"/>
 </g>
 <g>
  <title>Layer 1</title>
  <path id="svg_1" d="m84,141.67778c4.03619,-2.08978 7.46953,-4.03583 1.1997,-4.09279c-5.53716,1.04981 -19.86129,-6.66662 -8.38109,-10.45943c7.18216,-3.95584 23.52718,5.18125 23.61431,-10.44791c-1.29926,-9.7947 -22.38295,-2.14707 -15.4471,-15.28305c7.63856,-4.40601 22.7852,5.97511 25.34761,-7.65882c-2.34893,-13.21971 -17.04086,-4.78295 -24.42539,-8.43643c-7.15873,2.083 -9.04397,-11.19636 -1.00957,-9.192c18.57335,-1.41354 37.27624,0.661 55.7856,-2.22368c2.98989,-2.33623 5.20001,-16.70743 1.4269,-17.67521c-26.96243,-0.78812 -53.9725,-0.06373 -80.89225,-2.41453c-9.67137,-0.1417 -2.28191,-14.70985 4.86469,-11.28857c6.80754,-3.14468 9.50539,-11.39026 14.50168,-19.53212c2.55318,-17.79656 -9.71767,-11.19128 -14.72899,-5.98359c-5.59588,5.17514 -15.22099,15.91727 -20.32702,21.55648c-4.47595,4.56567 -14.78822,9.632 -21.06126,15.7522c-5.36198,2.68808 -11.2296,1.34981 -16.49605,1.8325c0,24.11237 0,48.22438 0,72.33673c14.89966,9.15202 30.57824,17.19115 47.09651,16.27152c9.6763,-0.05558 19.63053,0.45491 29.05447,-3.06129l-0.12275,-0.00001zm-61.26453,7.73373c-7.60606,-4.12262 -15.19832,-8.29778 -22.73547,-12.66582c0.3607,-30.11121 0.72138,-60.22276 1.08205,-90.33397c6.01772,-0.32238 14.94703,3.88838 19.23631,-2.31182c11.53198,-5.22124 19.01914,-16.76947 29.12855,-25.43707c7.11431,-7.88593 12.79688,-10.5774 20.14501,-16.55795c5.58122,-3.64094 8.60319,-1.78166 14.88798,-0.19424c2.74108,6.32766 6.14393,9.5981 4.37816,21.65242c-3.68453,2.61452 -8.46606,20.18702 -1.22535,20.32668c20.15819,2.72502 40.64096,-1.10507 60.64058,3.65754c4.98007,9.51098 5.92982,30.87831 -3.18489,36.90971c-8.7226,3.55754 -17.91934,1.79284 -26.881,2.22062c-0.00054,8.99778 1.054,20.48023 -6.02562,25.00013c-5.22754,9.61811 -5.59516,23.74763 -14.01864,30.78544c-7.0844,10.24046 -17.16923,13.4038 -27.00601,13.06617c-16.12989,0.30847 -33.10806,2.48976 -48.42166,-6.11717l0,-0.00068l0,0.00001z" fill-opacity="null" stroke-opacity="null" stroke-width="0" stroke="null" fill="#000000"/>
 </g>
</svg>